<?xml version="1.0" encoding="UTF-8"?> <svg xmlns="http://www.w3.org/2000/svg" width="301" height="301" viewBox="0 0 301 301" fill="none"><g clip-path="url(#clip0_729_2306)"><path d="M263.625 176.069C261.391 170.774 258.193 166.019 254.119 161.935C250.048 157.85 245.301 154.643 240.019 152.403C234.549 150.082 228.738 148.906 222.746 148.903C221.622 148.903 220.485 148.948 219.368 149.032C218.623 146.54 217.207 142.77 214.684 138.918C202.598 120.081 175.321 121.644 163.579 138.647C161.668 141.361 160.203 144.342 159.233 147.508C155.273 145.772 151.066 144.891 146.727 144.891C136.394 144.8 126.156 150.312 120.504 159.103C118.611 162.001 117.22 165.17 116.371 168.517C108.855 169.456 101.927 173.109 96.8673 178.804C94.3724 181.618 92.4203 184.816 91.0667 188.309C89.6644 191.926 88.9546 195.742 88.9546 199.66C88.9546 203.897 89.7827 208.006 91.4147 211.874C92.991 215.614 95.2492 218.971 98.1234 221.852C103.869 227.657 111.985 231.088 120.278 231.05C123.643 231.05 126.963 230.514 130.143 229.453C131.058 232.71 132.485 235.782 134.388 238.586C141.926 250.081 157.527 255.359 170.583 250.595C173.771 249.478 176.746 247.86 179.425 245.784C182.104 247.86 185.079 249.478 188.267 250.595C196.497 253.506 206.135 252.739 213.859 248.337C218.365 245.804 222.21 242.159 224.984 237.796C228.449 237.622 231.887 237.044 235.2 236.074C238.433 235.131 241.557 233.809 244.491 232.153C246.161 231.207 246.752 229.081 245.809 227.411C245.193 226.322 244.031 225.644 242.779 225.644C242.18 225.644 241.589 225.801 241.067 226.096C235.567 229.199 229.303 230.858 222.955 230.894C218.032 230.892 213.307 228.628 210.586 227.028C209.151 226.184 207.322 226.464 206.202 227.697C204.716 229.333 205.087 231.917 206.975 233.067C209.571 234.647 213.239 236.55 216.698 237.247C212.128 242.357 205.565 245.377 198.566 245.377H198.563C192.317 245.373 186.37 242.997 181.822 238.68C181.175 238.064 180.323 237.723 179.425 237.723C178.527 237.723 177.675 238.064 177.027 238.68C172.48 242.997 166.533 245.373 160.287 245.377H160.273C148.115 245.377 137.742 236.262 136.149 224.18C135.942 222.602 134.658 221.29 132.942 221.164C132.28 221.116 131.621 221.286 131.026 221.581C127.658 223.249 124.039 224.093 120.271 224.093C113.771 224.093 107.657 221.553 103.05 216.94C98.4501 212.32 95.917 206.183 95.9135 199.66C95.9104 187.722 104.325 177.82 115.652 175.668C115.826 178.683 116.58 180.89 117.226 182.266C118.072 184.071 118.966 185.024 119.22 185.275C119.874 185.919 120.744 186.274 121.663 186.274C122.602 186.274 123.483 185.905 124.14 185.237C124.781 184.59 125.135 183.731 125.142 182.819C125.149 181.911 124.805 181.048 124.179 180.394C124.175 180.388 124.165 180.373 124.147 180.349C123.677 179.74 122.588 177.935 122.574 174.348C122.574 173.669 122.616 172.954 122.698 172.225C124.669 160.413 134.743 151.85 146.702 151.85H146.716C151.344 151.85 155.85 153.165 159.755 155.649C160.743 156.279 162.006 156.366 163.074 155.878C164.153 155.384 164.897 154.386 165.068 153.213C166.787 141.298 177.142 132.312 189.154 132.312C200.544 132.166 207.596 139.045 211.055 146.694C211.707 148.105 212.18 149.402 212.514 150.44C205.204 152.988 202.289 156.827 202.258 156.873C201.075 158.383 201.346 160.574 202.86 161.754C203.476 162.237 204.217 162.491 204.996 162.491C206.075 162.491 207.074 162.004 207.738 161.159C207.742 161.155 207.745 161.155 207.745 161.152C208.46 160.386 211.261 157.775 217.397 156.246C219.165 155.994 220.963 155.86 222.746 155.86C232.733 155.864 242.124 159.767 249.191 166.847C256.258 173.937 260.152 183.361 260.152 193.381C260.152 197.093 259.613 200.76 258.551 204.27C257.998 206.11 259.042 208.055 260.876 208.608C261.913 208.921 263.071 208.719 263.938 208.083C264.554 207.634 264.996 207.011 265.215 206.284C266.474 202.116 267.111 197.775 267.111 193.381C267.112 187.376 265.939 181.552 263.625 176.069V176.069Z" fill="white"></path><path d="M152.566 175.294C154.386 175.294 156.151 175.883 157.668 176.997C159.217 178.134 161.395 177.8 162.532 176.25C163.669 174.702 163.335 172.525 161.786 171.387C159.066 169.391 155.878 168.336 152.566 168.336C143.584 168.336 136.278 176.139 136.278 185.731C136.278 195.323 143.584 203.126 152.566 203.126C156.218 203.126 159.485 201.832 162.015 199.383C162.503 198.912 162.965 198.394 163.389 197.844C164.564 196.323 164.282 194.138 162.761 192.965C161.239 191.79 159.054 192.073 157.88 193.593C157.66 193.878 157.423 194.144 157.175 194.384C155.952 195.568 154.401 196.168 152.565 196.168C147.421 196.168 143.236 191.486 143.236 185.731C143.236 179.976 147.422 175.294 152.566 175.294V175.294Z" fill="white"></path><path d="M205.87 185.73C205.87 176.139 198.065 168.336 188.472 168.336C178.879 168.336 171.074 176.139 171.074 185.73C171.074 195.322 178.879 203.125 188.472 203.125C198.065 203.125 205.87 195.322 205.87 185.73V185.73ZM178.033 185.73C178.033 179.975 182.716 175.294 188.472 175.294C194.228 175.294 198.911 179.975 198.911 185.73C198.911 191.485 194.228 196.167 188.472 196.167C182.716 196.167 178.033 191.485 178.033 185.73Z" fill="white"></path><path d="M230.228 201.386C230.228 195.631 225.545 190.949 219.789 190.949C214.033 190.949 209.35 195.631 209.35 201.386C209.35 203.307 210.908 204.865 212.829 204.865C214.751 204.865 216.309 203.307 216.309 201.386C216.309 199.467 217.87 197.907 219.789 197.907C221.707 197.907 223.268 199.467 223.268 201.386C223.268 204.245 211.09 213.058 210.035 214.62C209.299 215.709 209.13 217.083 209.721 218.257C210.312 219.431 211.514 220.172 212.829 220.172H226.748C228.67 220.172 230.228 218.614 230.228 216.693C230.228 214.772 228.67 213.214 226.748 213.214H220.994C221.417 212.83 230.228 206.68 230.228 201.386V201.386Z" fill="white"></path><path d="M245.698 175.246C244.403 173.597 242.921 172.185 241.293 171.054C238.624 169.189 236.39 168.57 235.771 168.428C234.754 168.198 233.665 168.452 232.851 169.096C232.228 169.59 231.79 170.289 231.616 171.065C231.202 172.923 232.385 174.787 234.243 175.215C234.417 175.264 236.007 175.723 237.817 177.135C240.106 178.927 241.755 181.324 242.862 184.455C243.353 185.846 244.671 186.782 246.147 186.782C246.537 186.782 246.926 186.716 247.299 186.584C249.108 185.951 250.065 183.961 249.432 182.152C248.534 179.581 247.278 177.257 245.698 175.246V175.246Z" fill="white"></path><path d="M179.989 223.989C179.428 222.743 178.183 221.936 176.812 221.936C176.335 221.936 175.872 222.03 175.43 222.222C175.43 222.225 175.427 222.225 175.427 222.225C175.423 222.225 175.416 222.228 175.402 222.235L175.392 222.239C175.253 222.295 173.948 222.782 171.985 222.782H171.968C168.941 222.761 166.081 221.731 163.224 219.637C162.622 219.188 161.908 218.955 161.16 218.955C160.057 218.955 159.01 219.483 158.359 220.367C157.806 221.112 157.576 222.03 157.715 222.948C157.855 223.871 158.342 224.681 159.09 225.231C161.251 226.834 163.561 228.035 165.952 228.793C167.935 229.419 169.972 229.739 171.931 229.739C175.31 229.732 177.622 228.856 178.238 228.588C179.989 227.802 180.775 225.739 179.989 223.989V223.989Z" fill="white"></path><path d="M120.028 209.482C120.024 209.482 120.024 209.478 120.024 209.478C120.021 209.478 120.017 209.478 120.014 209.475L119.982 209.468C119.809 209.419 118.225 208.956 116.419 207.551C114.133 205.759 112.484 203.365 111.377 200.234C110.887 198.839 109.568 197.907 108.093 197.907C107.703 197.907 107.313 197.973 106.941 198.102C106.064 198.411 105.358 199.041 104.957 199.879C104.554 200.718 104.502 201.661 104.808 202.537C105.706 205.108 106.962 207.432 108.541 209.443C109.836 211.092 111.318 212.501 112.947 213.635C115.623 215.503 117.849 216.115 118.469 216.262C118.719 216.317 118.977 216.345 119.231 216.345C120.01 216.345 120.776 216.077 121.388 215.593C122.011 215.099 122.45 214.4 122.624 213.624C122.825 212.723 122.665 211.798 122.175 211.015C121.684 210.237 120.922 209.69 120.028 209.482V209.482Z" fill="white"></path><path d="M183.524 149.582L183.527 149.578C183.552 149.554 184.095 149.022 185.017 148.521C186.252 147.853 187.595 147.512 189.008 147.512C190.194 147.512 191.388 147.742 192.661 148.208C193.048 148.354 193.455 148.427 193.865 148.427C195.316 148.427 196.628 147.512 197.129 146.152C197.453 145.279 197.415 144.333 197.025 143.49C196.635 142.645 195.943 142.005 195.069 141.682C193.044 140.933 191.009 140.554 189.022 140.554H189.004C185.594 140.554 182.957 141.668 181.346 142.603C179.731 143.539 178.771 144.479 178.433 144.837C177.132 146.246 177.222 148.451 178.632 149.752C179.275 150.348 180.114 150.674 180.991 150.674C181.948 150.674 182.87 150.278 183.524 149.582V149.582Z" fill="white"></path><path d="M254.632 222.538C256.554 222.538 258.111 220.981 258.111 219.059C258.111 217.138 256.554 215.58 254.632 215.58C252.71 215.58 251.152 217.138 251.152 219.059C251.152 220.981 252.71 222.538 254.632 222.538Z" fill="white"></path></g><circle cx="150.196" cy="150.674" r="150" fill="#33B44A"></circle><g clip-path="url(#clip1_729_2306)"><path d="M260.383 134.232C257.507 127.416 253.391 121.294 248.145 116.036C242.904 110.778 236.794 106.649 229.994 103.765C222.952 100.777 215.472 99.2634 207.758 99.2594C206.311 99.2594 204.846 99.3176 203.408 99.4251C202.45 96.2182 200.626 91.3638 197.379 86.4058C181.82 62.1555 146.704 64.1681 131.588 86.0569C129.129 89.55 127.243 93.3881 125.993 97.4635C120.895 95.2287 115.48 94.0954 109.894 94.0954C96.5923 93.978 83.4117 101.074 76.1361 112.391C73.6992 116.121 71.9074 120.201 70.8144 124.51C61.1387 125.719 52.2199 130.421 45.7067 137.753C42.4949 141.376 39.9819 145.492 38.2393 149.989C36.4341 154.646 35.5203 159.559 35.5203 164.602C35.5203 170.057 36.5864 175.346 38.6873 180.326C40.7165 185.141 43.6237 189.463 47.3238 193.171C54.7208 200.644 65.1684 205.061 75.8449 205.012C80.1766 205.012 84.4501 204.323 88.5444 202.957C89.7225 207.149 91.5591 211.104 94.0094 214.713C103.714 229.512 123.797 236.306 140.605 230.173C144.709 228.736 148.539 226.653 151.988 223.98C155.437 226.653 159.267 228.736 163.37 230.173C173.965 233.921 186.373 232.934 196.317 227.267C202.118 224.006 207.068 219.313 210.638 213.696C215.1 213.472 219.526 212.729 223.79 211.479C227.952 210.266 231.974 208.564 235.75 206.432C237.901 205.214 238.662 202.477 237.448 200.328C236.655 198.926 235.159 198.053 233.547 198.053C232.776 198.053 232.014 198.254 231.343 198.635C224.263 202.629 216.199 204.765 208.027 204.811C201.689 204.808 195.606 201.895 192.104 199.835C190.256 198.747 187.902 199.109 186.46 200.695C184.546 202.802 185.024 206.129 187.455 207.608C190.797 209.643 195.519 212.093 199.971 212.99C194.089 219.568 185.639 223.456 176.63 223.456H176.625C168.584 223.451 160.929 220.392 155.074 214.835C154.241 214.042 153.144 213.603 151.988 213.603C150.832 213.603 149.735 214.042 148.901 214.835C143.047 220.392 135.391 223.451 127.35 223.456H127.333C111.681 223.456 98.3276 211.722 96.276 196.168C96.0095 194.137 94.3574 192.448 92.1481 192.286C91.2952 192.223 90.4473 192.443 89.6808 192.822C85.3451 194.969 80.6868 196.056 75.8355 196.056C67.4678 196.056 59.5972 192.786 53.6664 186.848C47.7444 180.9 44.4833 173 44.4789 164.603C44.4748 149.234 55.3072 136.486 69.8898 133.716C70.1138 137.597 71.0836 140.439 71.9159 142.209C73.0045 144.533 74.1557 145.761 74.4827 146.083C75.3248 146.912 76.4447 147.369 77.6273 147.369C78.8368 147.369 79.9701 146.895 80.8167 146.035C81.641 145.201 82.0979 144.095 82.1068 142.922C82.1158 141.753 81.6723 140.642 80.866 139.8C80.8615 139.791 80.8481 139.773 80.8257 139.742C80.221 138.958 78.8189 136.634 78.801 132.016C78.801 131.143 78.8543 130.222 78.9604 129.283C81.4972 114.078 94.4667 103.053 109.862 103.053H109.88C115.838 103.053 121.639 104.746 126.665 107.944C127.937 108.755 129.563 108.867 130.939 108.239C132.327 107.603 133.286 106.318 133.505 104.809C135.718 89.4694 149.049 77.9015 164.513 77.9015C179.175 77.7138 188.254 86.5693 192.707 96.4158C193.546 98.2318 194.155 99.9022 194.585 101.238C185.175 104.518 181.421 109.461 181.382 109.52C179.859 111.463 180.208 114.285 182.157 115.803C182.95 116.425 183.904 116.753 184.907 116.753C186.296 116.753 187.582 116.126 188.437 115.038C188.442 115.033 188.446 115.033 188.446 115.028C189.366 114.042 192.972 110.682 200.872 108.713C203.148 108.388 205.463 108.216 207.757 108.216C220.614 108.221 232.704 113.246 241.802 122.36C250.9 131.487 255.912 143.62 255.912 156.518C255.912 161.297 255.218 166.018 253.852 170.536C253.139 172.905 254.483 175.409 256.844 176.121C258.179 176.524 259.671 176.264 260.786 175.445C261.579 174.867 262.148 174.066 262.43 173.129C264.052 167.764 264.871 162.175 264.871 156.518C264.872 148.788 263.362 141.291 260.383 134.232V134.232Z" fill="white"></path><path d="M117.41 133.235C119.754 133.235 122.026 133.992 123.979 135.426C125.973 136.89 128.776 136.46 130.241 134.466C131.705 132.472 131.275 129.669 129.28 128.205C125.779 125.636 121.674 124.277 117.41 124.277C105.848 124.277 96.4418 134.323 96.4418 146.67C96.4418 159.018 105.848 169.064 117.41 169.064C122.112 169.064 126.318 167.398 129.575 164.246C130.203 163.638 130.798 162.972 131.344 162.264C132.856 160.306 132.493 157.493 130.535 155.983C128.576 154.47 125.763 154.834 124.252 156.791C123.968 157.159 123.663 157.502 123.344 157.81C121.769 159.334 119.773 160.106 117.41 160.106C110.788 160.106 105.4 154.079 105.4 146.67C105.4 139.262 110.788 133.235 117.41 133.235V133.235Z" fill="white"></path><path d="M186.032 146.67C186.032 134.322 175.985 124.277 163.635 124.277C151.285 124.277 141.237 134.322 141.237 146.67C141.237 159.018 151.285 169.063 163.635 169.063C175.985 169.063 186.032 159.018 186.032 146.67V146.67ZM150.196 146.67C150.196 139.262 156.225 133.234 163.635 133.234C171.045 133.234 177.073 139.262 177.073 146.67C177.073 154.079 171.045 160.106 163.635 160.106C156.225 160.106 150.196 154.079 150.196 146.67Z" fill="white"></path><path d="M217.389 166.824C217.389 159.415 211.36 153.388 203.95 153.388C196.54 153.388 190.512 159.415 190.512 166.824C190.512 169.297 192.517 171.303 194.991 171.303C197.465 171.303 199.471 169.297 199.471 166.824C199.471 164.354 201.48 162.345 203.95 162.345C206.42 162.345 208.43 164.354 208.43 166.824C208.43 170.505 192.751 181.851 191.394 183.861C190.446 185.264 190.229 187.032 190.99 188.543C191.75 190.054 193.298 191.009 194.991 191.009H212.909C215.383 191.009 217.389 189.003 217.389 186.53C217.389 184.057 215.383 182.051 212.909 182.051H205.502C206.047 181.557 217.389 173.64 217.389 166.824V166.824Z" fill="white"></path><path d="M237.305 133.172C235.638 131.05 233.73 129.231 231.634 127.776C228.198 125.375 225.322 124.579 224.525 124.395C223.217 124.099 221.815 124.426 220.766 125.255C219.965 125.891 219.4 126.791 219.176 127.79C218.643 130.182 220.166 132.582 222.558 133.133C222.782 133.196 224.829 133.787 227.159 135.605C230.106 137.911 232.23 140.997 233.654 145.028C234.286 146.819 235.983 148.024 237.883 148.024C238.384 148.024 238.886 147.939 239.365 147.769C241.695 146.954 242.927 144.392 242.111 142.063C240.956 138.753 239.339 135.761 237.305 133.172V133.172Z" fill="white"></path><path d="M152.714 195.922C151.992 194.319 150.389 193.279 148.624 193.279C148.01 193.279 147.414 193.4 146.845 193.647C146.845 193.651 146.841 193.651 146.841 193.651C146.836 193.651 146.827 193.656 146.81 193.665L146.796 193.669C146.617 193.741 144.937 194.368 142.411 194.368H142.388C138.491 194.341 134.809 193.015 131.131 190.319C130.356 189.742 129.438 189.441 128.475 189.441C127.055 189.441 125.707 190.122 124.869 191.26C124.157 192.218 123.861 193.4 124.04 194.583C124.219 195.77 124.846 196.813 125.81 197.521C128.591 199.585 131.566 201.13 134.643 202.106C137.196 202.912 139.819 203.325 142.341 203.325C146.691 203.316 149.667 202.187 150.46 201.842C152.714 200.831 153.726 198.175 152.714 195.922V195.922Z" fill="white"></path><path d="M75.5224 177.246C75.5179 177.246 75.5179 177.242 75.5179 177.242C75.5134 177.242 75.5089 177.242 75.5045 177.237L75.4642 177.228C75.2402 177.165 73.202 176.57 70.8771 174.76C67.9341 172.454 65.8108 169.372 64.3863 165.342C63.7547 163.546 62.0569 162.346 60.1576 162.346C59.6559 162.346 59.1542 162.43 58.6749 162.596C57.5461 162.994 56.6367 163.806 56.1216 164.885C55.6019 165.964 55.5348 167.178 55.929 168.306C57.0847 171.616 58.7018 174.608 60.7355 177.196C62.4019 179.319 64.3101 181.133 66.4066 182.593C69.8513 184.998 72.7182 185.786 73.5156 185.974C73.8381 186.046 74.1696 186.082 74.4966 186.082C75.5 186.082 76.4855 185.737 77.2739 185.114C78.0757 184.478 78.6401 183.578 78.8641 182.579C79.1239 181.42 78.9179 180.228 78.2863 179.221C77.6546 178.218 76.6736 177.515 75.5224 177.246V177.246Z" fill="white"></path><path d="M157.265 100.134L157.269 100.129C157.301 100.098 157.999 99.4129 159.186 98.7683C160.777 97.9078 162.506 97.4692 164.325 97.4692C165.852 97.4692 167.389 97.7649 169.028 98.3651C169.525 98.5533 170.049 98.6473 170.578 98.6473C172.446 98.6473 174.135 97.4697 174.78 95.7182C175.196 94.5943 175.147 93.3763 174.645 92.2918C174.144 91.2037 173.252 90.3795 172.128 89.9633C169.521 89.0002 166.9 88.512 164.342 88.512H164.32C159.93 88.512 156.535 89.9454 154.461 91.1495C152.382 92.3545 151.146 93.564 150.711 94.0249C149.036 95.8391 149.152 98.6782 150.967 100.353C151.795 101.12 152.875 101.54 154.004 101.54C155.236 101.54 156.423 101.03 157.265 100.134V100.134Z" fill="white"></path><path d="M248.806 194.054C251.28 194.054 253.285 192.049 253.285 189.576C253.285 187.102 251.28 185.097 248.806 185.097C246.332 185.097 244.326 187.102 244.326 189.576C244.326 192.049 246.332 194.054 248.806 194.054Z" fill="white"></path></g><defs><clipPath id="clip0_729_2306"><rect width="178.157" height="178.157" fill="white" transform="translate(88.9546 99.7627)"></rect></clipPath><clipPath id="clip1_729_2306"><rect width="229.352" height="229.352" fill="white" transform="translate(35.5203 35.9985)"></rect></clipPath></defs></svg> 