<?xml version="1.0" encoding="UTF-8"?> <svg xmlns="http://www.w3.org/2000/svg" width="300" height="301" viewBox="0 0 300 301" fill="none"><circle cx="150" cy="150.92" r="150" fill="#33B44A"></circle><path d="M77.9247 167.611H83.7726V161.763H77.9247C75.5982 161.763 73.367 160.839 71.722 159.194C70.0769 157.549 69.1527 155.317 69.1527 152.991C69.1527 150.665 70.0769 148.433 71.722 146.788C73.367 145.143 75.5982 144.219 77.9247 144.219H86.6966V150.067H92.5445V144.219H127.632V150.067H101.316C98.2155 150.071 95.2427 151.304 93.05 153.497C90.8574 155.689 89.624 158.662 89.6205 161.763V214.394C89.6205 214.973 89.792 215.538 90.1133 216.019C90.4346 216.5 90.8912 216.875 91.4255 217.096C91.9598 217.317 92.5478 217.375 93.115 217.262C93.6822 217.149 94.2032 216.871 94.6121 216.462L107.415 203.659C108.03 203.044 108.864 202.698 109.734 202.698C110.603 202.698 111.437 203.044 112.052 203.659C112.667 204.274 113.012 205.108 113.012 205.977C113.012 206.847 112.667 207.681 112.052 208.296L102.173 218.175C101.695 218.653 101.397 219.282 101.33 219.954C101.264 220.627 101.432 221.302 101.807 221.864C103.223 223.98 103.979 226.469 103.979 229.014C103.979 231.56 103.223 234.048 101.807 236.164C101.487 236.644 101.316 237.209 101.316 237.786V240.71H107.164V238.632C107.874 237.442 108.45 236.178 108.882 234.862H186.112V229.014H110.088V218.53L116.187 212.431C117.442 211.176 118.304 209.582 118.667 207.845C119.03 206.108 118.879 204.302 118.232 202.65C117.584 200.998 116.469 199.57 115.023 198.541C113.577 197.513 111.862 196.928 110.088 196.86V155.915H191.959V196.86C190.186 196.929 188.472 197.513 187.025 198.541C185.579 199.57 184.464 200.998 183.817 202.65C183.17 204.302 183.018 206.107 183.381 207.844C183.744 209.581 184.606 211.175 185.861 212.43L194.158 220.727C192.768 223.533 192.106 226.643 192.233 229.772C192.36 232.901 193.271 235.947 194.883 238.632V240.71H200.731V237.786C200.731 237.209 200.561 236.644 200.24 236.164C198.824 234.048 198.069 231.56 198.069 229.014C198.069 226.469 198.824 223.98 200.24 221.864C200.615 221.302 200.784 220.627 200.717 219.954C200.65 219.282 200.353 218.653 199.875 218.175L189.995 208.296C189.38 207.681 189.035 206.847 189.035 205.977C189.035 205.108 189.38 204.274 189.995 203.659C190.61 203.044 191.444 202.698 192.314 202.698C193.183 202.698 194.017 203.044 194.632 203.659L207.435 216.462C207.844 216.871 208.365 217.15 208.933 217.263C209.5 217.375 210.088 217.318 210.622 217.096C211.157 216.875 211.613 216.5 211.935 216.019C212.256 215.538 212.427 214.973 212.427 214.394V192.214L215.706 195.492C216.523 196.305 217.171 197.272 217.612 198.337C218.053 199.401 218.278 200.543 218.275 201.695V240.71H224.123V201.695C224.128 199.775 223.753 197.872 223.018 196.097C222.283 194.323 221.203 192.712 219.841 191.358L212.427 183.944V161.763C212.424 158.662 211.19 155.689 208.998 153.497C206.805 151.304 203.832 150.071 200.731 150.067H174.416V144.219H209.503V150.067H215.351V144.219H224.123C226.45 144.219 228.681 145.143 230.326 146.788C231.971 148.433 232.895 150.665 232.895 152.991C232.895 155.317 231.971 157.549 230.326 159.194C228.681 160.839 226.45 161.763 224.123 161.763H218.275V167.611H224.123C228.001 167.611 231.719 166.071 234.461 163.329C237.203 160.587 238.743 156.868 238.743 152.991C238.743 149.114 237.203 145.395 234.461 142.653C231.719 139.911 228.001 138.371 224.123 138.371H215.351V135.199C219.436 134.503 223.144 132.386 225.82 129.221C228.495 126.056 229.965 122.048 229.971 117.903V114.979C229.971 114.204 229.663 113.46 229.115 112.912C228.566 112.364 227.823 112.055 227.047 112.055C222.729 112.053 218.562 113.649 215.351 116.537V111.807C219.436 111.112 223.144 108.994 225.82 105.829C228.495 102.664 229.965 98.6558 229.971 94.5117V91.5877C229.971 90.8122 229.663 90.0685 229.115 89.5201C228.566 88.9718 227.823 88.6637 227.047 88.6637C222.729 88.6609 218.562 90.2573 215.351 93.1451V88.4156C219.436 87.7198 223.144 85.6025 225.82 82.4376C228.495 79.2727 229.965 75.264 229.971 71.1199V68.1959C229.971 67.4205 229.663 66.6767 229.115 66.1284C228.566 65.58 227.823 65.272 227.047 65.272C224.151 65.2732 221.3 65.9918 218.748 67.3634C216.197 68.7351 214.026 70.7172 212.427 73.1327C210.829 70.7172 208.657 68.7351 206.106 67.3634C203.555 65.9918 200.704 65.2732 197.807 65.272C197.032 65.272 196.288 65.58 195.74 66.1284C195.191 66.6767 194.883 67.4205 194.883 68.1959V71.1199C194.889 75.264 196.36 79.2727 199.035 82.4376C201.71 85.6025 205.418 87.7198 209.503 88.4156V93.1451C206.292 90.2573 202.126 88.6609 197.807 88.6637C197.032 88.6637 196.288 88.9718 195.74 89.5201C195.191 90.0685 194.883 90.8122 194.883 91.5877V94.5117C194.889 98.6558 196.36 102.664 199.035 105.829C201.71 108.994 205.418 111.112 209.503 111.807V116.537C206.292 113.649 202.126 112.053 197.807 112.055C197.032 112.055 196.288 112.364 195.74 112.912C195.191 113.46 194.883 114.204 194.883 114.979V117.903C194.889 122.048 196.36 126.056 199.035 129.221C201.71 132.386 205.418 134.503 209.503 135.199V138.371H174.416V135.199C178.501 134.503 182.209 132.386 184.884 129.221C187.559 126.056 189.03 122.048 189.035 117.903V114.979C189.035 114.204 188.727 113.46 188.179 112.912C187.631 112.364 186.887 112.055 186.112 112.055C181.793 112.053 177.627 113.649 174.416 116.537V111.807C178.501 111.112 182.209 108.994 184.884 105.829C187.559 102.664 189.03 98.6558 189.035 94.5117V91.5877C189.035 90.8122 188.727 90.0685 188.179 89.5201C187.631 88.9718 186.887 88.6637 186.112 88.6637C181.793 88.6609 177.627 90.2573 174.416 93.1451V88.4156C178.501 87.7198 182.209 85.6025 184.884 82.4376C187.559 79.2727 189.03 75.264 189.035 71.1199V68.1959C189.035 67.4205 188.727 66.6767 188.179 66.1284C187.631 65.58 186.887 65.272 186.112 65.272C183.215 65.2732 180.364 65.9918 177.813 67.3634C175.262 68.7351 173.09 70.7172 171.492 73.1327C169.893 70.7172 167.722 68.7351 165.17 67.3634C162.619 65.9918 159.768 65.2732 156.872 65.272C156.096 65.272 155.353 65.58 154.804 66.1284C154.256 66.6767 153.948 67.4205 153.948 68.1959V71.1199C153.954 75.264 155.424 79.2727 158.099 82.4376C160.775 85.6025 164.482 87.7198 168.568 88.4156V93.1451C165.357 90.2573 161.19 88.6609 156.872 88.6637C156.096 88.6637 155.353 88.9718 154.804 89.5201C154.256 90.0685 153.948 90.8122 153.948 91.5877V94.5117C153.954 98.6558 155.424 102.664 158.099 105.829C160.775 108.994 164.482 111.112 168.568 111.807V116.537C165.357 113.649 161.19 112.053 156.872 112.055C156.096 112.055 155.353 112.364 154.804 112.912C154.256 113.46 153.948 114.204 153.948 114.979V117.903C153.954 122.048 155.424 126.056 158.099 129.221C160.775 132.386 164.482 134.503 168.568 135.199V138.371H133.48V135.199C137.565 134.503 141.273 132.386 143.948 129.221C146.624 126.056 148.094 122.048 148.1 117.903V114.979C148.1 114.204 147.792 113.46 147.244 112.912C146.695 112.364 145.951 112.055 145.176 112.055C140.857 112.053 136.691 113.649 133.48 116.537V111.807C137.565 111.112 141.273 108.994 143.948 105.829C146.624 102.664 148.094 98.6558 148.1 94.5117V91.5877C148.1 90.8122 147.792 90.0685 147.244 89.5201C146.695 88.9718 145.951 88.6637 145.176 88.6637C140.857 88.6609 136.691 90.2573 133.48 93.1451V88.4156C137.565 87.7198 141.273 85.6025 143.948 82.4376C146.624 79.2727 148.094 75.264 148.1 71.1199V68.1959C148.1 67.4205 147.792 66.6767 147.244 66.1284C146.695 65.58 145.951 65.272 145.176 65.272C142.279 65.2732 139.428 65.9918 136.877 67.3634C134.326 68.7351 132.154 70.7172 130.556 73.1327C128.958 70.7172 126.786 68.7351 124.235 67.3634C121.684 65.9918 118.833 65.2732 115.936 65.272C115.161 65.272 114.417 65.58 113.869 66.1284C113.32 66.6767 113.012 67.4205 113.012 68.1959V71.1199C113.018 75.264 114.488 79.2727 117.164 82.4376C119.839 85.6025 123.547 87.7198 127.632 88.4156V93.1451C124.421 90.2573 120.255 88.6609 115.936 88.6637C115.161 88.6637 114.417 88.9718 113.869 89.5201C113.32 90.0685 113.012 90.8122 113.012 91.5877V94.5117C113.018 98.6558 114.488 102.664 117.164 105.829C119.839 108.994 123.547 111.112 127.632 111.807V116.537C124.421 113.649 120.255 112.053 115.936 112.055C115.161 112.055 114.417 112.364 113.869 112.912C113.32 113.46 113.012 114.204 113.012 114.979V117.903C113.018 122.048 114.488 126.056 117.164 129.221C119.839 132.386 123.547 134.503 127.632 135.199V138.371H92.5445V135.199C96.6298 134.503 100.338 132.386 103.013 129.221C105.688 126.056 107.159 122.048 107.164 117.903V114.979C107.164 114.204 106.856 113.46 106.308 112.912C105.76 112.364 105.016 112.055 104.24 112.055C99.9219 112.053 95.7554 113.649 92.5445 116.537V111.807C96.6298 111.112 100.338 108.994 103.013 105.829C105.688 102.664 107.159 98.6558 107.164 94.5117V91.5877C107.164 90.8122 106.856 90.0685 106.308 89.5201C105.76 88.9718 105.016 88.6637 104.24 88.6637C99.9219 88.6609 95.7554 90.2573 92.5445 93.1451V88.4156C96.6298 87.7198 100.338 85.6025 103.013 82.4376C105.688 79.2727 107.159 75.264 107.164 71.1199V68.1959C107.164 67.4205 106.856 66.6767 106.308 66.1284C105.76 65.58 105.016 65.272 104.24 65.272C101.344 65.2732 98.4928 65.9918 95.9417 67.3634C93.3906 68.7351 91.2189 70.7172 89.6205 73.1327C88.0222 70.7172 85.8505 68.7351 83.2994 67.3634C80.7483 65.9918 77.8972 65.2732 75.0007 65.272C74.2252 65.272 73.4815 65.58 72.9331 66.1284C72.3848 66.6767 72.0767 67.4205 72.0767 68.1959V71.1199C72.0825 75.264 73.5529 79.2727 76.2282 82.4376C78.9034 85.6025 82.6113 87.7198 86.6966 88.4156V93.1451C83.4857 90.2573 79.3191 88.6609 75.0007 88.6637C74.2252 88.6637 73.4815 88.9718 72.9331 89.5201C72.3848 90.0685 72.0767 90.8122 72.0767 91.5877V94.5117C72.0825 98.6558 73.5529 102.664 76.2282 105.829C78.9034 108.994 82.6113 111.112 86.6966 111.807V116.537C83.4857 113.649 79.3191 112.053 75.0007 112.055C74.2252 112.055 73.4815 112.364 72.9331 112.912C72.3848 113.46 72.0767 114.204 72.0767 114.979V117.903C72.0825 122.048 73.5529 126.056 76.2282 129.221C78.9034 132.386 82.6113 134.503 86.6966 135.199V138.371H77.9247C74.0472 138.371 70.3286 139.911 67.5869 142.653C64.8451 145.395 63.3048 149.114 63.3048 152.991C63.3048 156.868 64.8451 160.587 67.5869 163.329C70.3286 166.071 74.0472 167.611 77.9247 167.611V167.611ZM104.24 198.689C103.904 198.945 95.4685 207.335 95.4685 207.335V161.763C95.4703 160.213 96.087 158.726 97.1833 157.63C98.2796 156.534 99.766 155.917 101.316 155.915H104.24V198.689ZM197.807 155.915H200.731C202.282 155.917 203.768 156.534 204.864 157.63C205.961 158.726 206.577 160.213 206.579 161.763V207.336C206.579 207.336 198.143 198.943 197.807 198.689V155.915ZM224.117 118.275C224.033 120.801 223.135 123.233 221.556 125.206C219.978 127.18 217.803 128.591 215.357 129.228C215.441 126.701 216.339 124.27 217.918 122.296C219.497 120.322 221.671 118.912 224.117 118.275V118.275ZM224.117 94.8834C224.033 97.4095 223.135 99.8409 221.556 101.815C219.978 103.789 217.803 105.199 215.357 105.836C215.441 103.31 216.339 100.878 217.918 98.9045C219.497 96.9306 221.671 95.5201 224.117 94.8834V94.8834ZM224.117 71.4916C224.033 74.0178 223.135 76.4491 221.556 78.423C219.978 80.3968 217.803 81.8073 215.357 82.4441C215.441 79.9179 216.339 77.4866 217.918 75.5127C219.497 73.5389 221.671 72.1284 224.117 71.4916V71.4916ZM200.737 71.4916C203.183 72.1284 205.358 73.5389 206.937 75.5127C208.515 77.4866 209.414 79.9179 209.497 82.4441C207.051 81.8073 204.877 80.3968 203.298 78.423C201.719 76.4491 200.821 74.0178 200.737 71.4916V71.4916ZM200.737 94.8834C203.183 95.5201 205.358 96.9306 206.937 98.9045C208.515 100.878 209.414 103.31 209.497 105.836C207.051 105.199 204.877 103.789 203.298 101.815C201.719 99.8409 200.821 97.4095 200.737 94.8834V94.8834ZM200.737 118.275C203.183 118.912 205.358 120.322 206.937 122.296C208.515 124.27 209.414 126.701 209.497 129.228C207.051 128.591 204.877 127.18 203.298 125.206C201.719 123.233 200.821 120.801 200.737 118.275V118.275ZM183.182 118.275C183.098 120.801 182.2 123.233 180.621 125.206C179.042 127.18 176.868 128.591 174.421 129.228C174.505 126.701 175.404 124.27 176.982 122.296C178.561 120.322 180.736 118.912 183.182 118.275V118.275ZM183.182 94.8834C183.098 97.4095 182.2 99.8409 180.621 101.815C179.042 103.789 176.868 105.199 174.421 105.836C174.505 103.31 175.404 100.878 176.982 98.9045C178.561 96.9306 180.736 95.5201 183.182 94.8834V94.8834ZM183.182 71.4916C183.098 74.0178 182.2 76.4491 180.621 78.423C179.042 80.3968 176.868 81.8073 174.421 82.4441C174.505 79.9179 175.404 77.4866 176.982 75.5127C178.561 73.5389 180.736 72.1284 183.182 71.4916V71.4916ZM159.802 71.4916C162.248 72.1284 164.422 73.5389 166.001 75.5127C167.58 77.4866 168.478 79.9179 168.562 82.4441C166.116 81.8073 163.941 80.3968 162.362 78.423C160.784 76.4491 159.885 74.0178 159.802 71.4916V71.4916ZM159.802 94.8834C162.248 95.5201 164.422 96.9306 166.001 98.9045C167.58 100.878 168.478 103.31 168.562 105.836C166.116 105.199 163.941 103.789 162.362 101.815C160.784 99.8409 159.885 97.4095 159.802 94.8834V94.8834ZM159.802 118.275C162.248 118.912 164.422 120.322 166.001 122.296C167.58 124.27 168.478 126.701 168.562 129.228C166.116 128.591 163.941 127.18 162.362 125.206C160.784 123.233 159.885 120.801 159.802 118.275V118.275ZM142.246 118.275C142.162 120.801 141.264 123.233 139.685 125.206C138.107 127.18 135.932 128.591 133.486 129.228C133.57 126.701 134.468 124.27 136.047 122.296C137.625 120.322 139.8 118.912 142.246 118.275V118.275ZM142.246 94.8834C142.162 97.4095 141.264 99.8409 139.685 101.815C138.107 103.789 135.932 105.199 133.486 105.836C133.57 103.31 134.468 100.878 136.047 98.9045C137.625 96.9306 139.8 95.5201 142.246 94.8834V94.8834ZM142.246 71.4916C142.162 74.0178 141.264 76.4491 139.685 78.423C138.107 80.3968 135.932 81.8073 133.486 82.4441C133.57 79.9179 134.468 77.4866 136.047 75.5127C137.625 73.5389 139.8 72.1284 142.246 71.4916V71.4916ZM133.48 144.219H168.568V150.067H133.48V144.219ZM118.866 71.4916C121.312 72.1284 123.487 73.5389 125.065 75.5127C126.644 77.4866 127.542 79.9179 127.626 82.4441C125.18 81.8073 123.006 80.3968 121.427 78.423C119.848 76.4491 118.95 74.0178 118.866 71.4916ZM118.866 94.8834C121.312 95.5201 123.487 96.9306 125.065 98.9045C126.644 100.878 127.542 103.31 127.626 105.836C125.18 105.199 123.006 103.789 121.427 101.815C119.848 99.8409 118.95 97.4095 118.866 94.8834V94.8834ZM118.866 118.275C121.312 118.912 123.487 120.322 125.065 122.296C126.644 124.27 127.542 126.701 127.626 129.228C125.18 128.591 123.006 127.18 121.427 125.206C119.848 123.233 118.95 120.801 118.866 118.275V118.275ZM101.311 118.275C101.227 120.801 100.328 123.233 98.7497 125.206C97.171 127.18 94.9964 128.591 92.5503 129.228C92.6341 126.701 93.5324 124.27 95.1112 122.296C96.6899 120.322 98.8645 118.912 101.311 118.275V118.275ZM101.311 94.8834C101.227 97.4095 100.328 99.8409 98.7497 101.815C97.171 103.789 94.9964 105.199 92.5503 105.836C92.6341 103.31 93.5324 100.878 95.1112 98.9045C96.6899 96.9306 98.8645 95.5201 101.311 94.8834V94.8834ZM101.311 71.4916C101.227 74.0178 100.328 76.4491 98.7497 78.423C97.171 80.3968 94.9964 81.8073 92.5503 82.4441C92.6341 79.9179 93.5324 77.4866 95.1112 75.5127C96.6899 73.5389 98.8645 72.1284 101.311 71.4916V71.4916ZM77.9305 71.4916C80.3765 72.1284 82.5511 73.5389 84.1299 75.5127C85.7086 77.4866 86.6069 79.9179 86.6907 82.4441C84.2447 81.8073 82.0701 80.3968 80.4913 78.423C78.9126 76.4491 78.0143 74.0178 77.9305 71.4916V71.4916ZM77.9305 94.8834C80.3765 95.5201 82.5511 96.9306 84.1299 98.9045C85.7086 100.878 86.6069 103.31 86.6907 105.836C84.2447 105.199 82.0701 103.789 80.4913 101.815C78.9126 99.8409 78.0143 97.4095 77.9305 94.8834V94.8834ZM77.9305 118.275C80.3765 118.912 82.5511 120.322 84.1299 122.296C85.7086 124.27 86.6069 126.701 86.6907 129.228C84.2447 128.591 82.0701 127.18 80.4913 125.206C78.9126 123.233 78.0143 120.801 77.9305 118.275V118.275ZM83.3497 190.214L87.4849 194.349L86.3417 195.492C85.5246 196.305 84.8769 197.272 84.4359 198.337C83.9949 199.401 83.7695 200.543 83.7726 201.695V240.71H77.9247V201.695C77.9194 199.775 78.2951 197.872 79.0302 196.097C79.7652 194.323 80.8449 192.712 82.2068 191.358L83.3497 190.214ZM121.784 161.763V167.611H115.936V161.763H121.784ZM133.48 167.611H127.632V161.763H133.48V167.611ZM145.176 167.611H139.328V161.763H145.176V167.611ZM186.112 179.307C186.109 177.444 185.515 175.631 184.415 174.128C183.315 172.624 181.766 171.51 179.991 170.945C179.419 168.341 177.975 166.01 175.897 164.339C173.82 162.669 171.234 161.758 168.568 161.758C165.902 161.758 163.316 162.669 161.238 164.339C159.16 166.01 157.716 168.341 157.144 170.945C155.148 171.577 153.443 172.903 152.339 174.683C151.235 176.463 150.805 178.579 151.125 180.648C151.445 182.718 152.496 184.605 154.086 185.968C155.676 187.33 157.701 188.079 159.796 188.079H177.34C179.665 188.076 181.895 187.151 183.539 185.507C185.184 183.862 186.109 181.632 186.112 179.307V179.307ZM156.872 179.307C156.873 178.532 157.181 177.788 157.729 177.24C158.277 176.692 159.021 176.384 159.796 176.383C160.571 176.383 161.315 176.075 161.863 175.526C162.412 174.978 162.72 174.234 162.72 173.459C162.72 171.908 163.336 170.42 164.433 169.324C165.529 168.227 167.017 167.611 168.568 167.611C170.119 167.611 171.606 168.227 172.703 169.324C173.8 170.42 174.416 171.908 174.416 173.459C174.416 174.234 174.724 174.978 175.272 175.526C175.82 176.075 176.564 176.383 177.34 176.383C178.115 176.383 178.859 176.691 179.407 177.239C179.956 177.788 180.264 178.531 180.264 179.307C180.264 180.082 179.956 180.826 179.407 181.374C178.859 181.923 178.115 182.231 177.34 182.231H159.796C159.021 182.23 158.277 181.922 157.729 181.373C157.181 180.825 156.873 180.082 156.872 179.307ZM159.796 199.775H153.948V193.927H159.796V199.775ZM151.024 205.622H156.872V211.47H151.024V205.622ZM171.492 199.775H165.644V193.927H171.492V199.775ZM162.72 205.622H168.568V211.47H162.72V205.622ZM183.188 199.775H177.34V193.927H183.188V199.775ZM180.264 211.47H174.416V205.622H180.264V211.47ZM115.936 176.383H130.556V182.231H115.936V176.383ZM145.176 193.927H115.936V188.079H145.176V193.927ZM145.176 205.622H124.708V199.775H145.176V205.622ZM121.784 211.47H145.176V217.318H121.784V211.47Z" fill="white"></path></svg> 