<?xml version="1.0" encoding="UTF-8"?> <svg xmlns="http://www.w3.org/2000/svg" width="300" height="301" viewBox="0 0 300 301" fill="none"><circle cx="150" cy="150.92" r="150" fill="#33B44A"></circle><g clip-path="url(#clip0_729_2307)"><path d="M171.343 139.439C172.709 138.074 172.709 135.86 171.343 134.494C160.448 123.6 142.721 123.6 131.827 134.495C130.461 135.86 130.461 138.074 131.827 139.439C132.509 140.122 133.404 140.463 134.299 140.463C135.194 140.463 136.089 140.122 136.771 139.439C144.939 131.271 158.23 131.271 166.398 139.439C167.764 140.805 169.978 140.805 171.343 139.439V139.439Z" fill="white"></path><path d="M164.811 151.967C166.176 150.602 166.176 148.388 164.811 147.022C157.518 139.73 145.652 139.73 138.359 147.023C136.993 148.388 136.994 150.602 138.359 151.968C139.041 152.65 139.936 152.991 140.831 152.991C141.726 152.991 142.621 152.65 143.304 151.967C147.869 147.401 155.299 147.401 159.866 151.967C161.231 153.333 163.445 153.333 164.811 151.967V151.967Z" fill="white"></path><path d="M234.095 131.099V125.902C234.095 119.185 228.631 113.72 221.913 113.72C215.196 113.72 209.731 119.185 209.731 125.902V131.124C206.182 131.455 203.394 134.449 203.394 138.083V141.696H185.368C185.24 140.094 185.002 138.505 184.652 136.948C184.229 135.063 182.36 133.878 180.475 134.302C178.591 134.725 177.406 136.595 177.829 138.479C178.264 140.418 178.485 142.42 178.485 144.428C178.485 159.33 166.361 171.455 151.458 171.455C136.555 171.455 124.431 159.33 124.431 144.428C124.431 129.525 136.555 117.401 151.458 117.401C154.29 117.401 157.079 117.836 159.745 118.694C161.584 119.286 163.554 118.275 164.145 116.437C164.736 114.598 163.725 112.629 161.887 112.037C159.674 111.325 157.396 110.849 155.081 110.604V100.009H179.064C181.791 100.009 184.281 98.5115 185.561 96.1016C187.092 93.2198 187.751 89.9562 187.468 86.6634C186.768 78.5118 180.088 71.8703 171.929 71.2139C168.369 70.9281 164.824 71.7733 161.805 73.5757C158.172 70.2036 153.423 68.3213 148.352 68.3213C141.838 68.3213 135.789 71.5192 132.102 76.79C124.012 77.3173 117.59 84.0674 117.59 92.2884C117.59 92.5613 117.597 92.8328 117.612 93.1022C117.813 96.975 121.036 100.009 124.95 100.009H148.088V110.575C131.802 112.183 118.855 125.324 117.548 141.696H101.259V135.849C101.354 134.937 101.095 133.988 100.457 133.232L85.4798 115.472C84.5407 114.359 83.1868 113.72 81.7644 113.72C80.3423 113.72 78.988 114.359 78.0492 115.472L63.0716 133.232C62.4333 133.989 62.174 134.937 62.2696 135.849V157.418C62.2696 161.275 65.4072 164.413 69.264 164.413H94.264C98.1208 164.413 101.258 161.275 101.258 157.418V148.689H117.704C119.669 164.344 132.312 176.723 148.088 178.281V187.44H141.021C137.165 187.44 134.028 190.578 134.028 194.433V226.526C134.028 230.382 137.165 233.519 141.021 233.519H162.148C166.004 233.519 169.141 230.382 169.141 226.526V194.433C169.141 190.577 166.004 187.44 162.148 187.44H155.081V178.255C170.738 176.589 183.257 164.259 185.211 148.689H203.393V157.42C203.393 161.276 206.53 164.413 210.386 164.413H233.928C237.784 164.413 240.921 161.275 240.921 157.42V138.084C240.922 134.284 237.874 131.189 234.095 131.099V131.099ZM124.595 92.7386C124.588 92.5895 124.584 92.4391 124.584 92.2884C124.584 87.5805 128.414 83.7498 133.122 83.7498C133.31 83.7498 133.52 83.7589 133.766 83.7781C135.137 83.8842 136.438 83.1793 137.099 81.9767C139.359 77.867 143.671 75.3143 148.352 75.3143C152.392 75.3143 156.116 77.1606 158.568 80.3799C159.166 81.1643 160.067 81.6599 161.05 81.7447C162.034 81.8288 163.005 81.4948 163.728 80.8241C165.809 78.8929 168.522 77.9559 171.368 78.1842C176.163 78.5698 180.089 82.4723 180.501 87.2615C180.668 89.2091 180.282 91.1316 179.385 92.8209C179.321 92.941 179.198 93.0153 179.064 93.0153H124.95C124.769 93.0156 124.603 92.8865 124.595 92.7386V92.7386ZM81.7644 121.914L90.261 131.989H73.2673L81.7644 121.914ZM94.2644 157.42L85.2607 157.421V150.817C85.2607 148.885 83.6952 147.32 81.764 147.32C79.8328 147.32 78.2674 148.885 78.2674 150.817V157.422L69.2626 157.423C69.2626 157.423 69.2626 157.421 69.2626 157.418V138.982H94.2654L94.2644 157.42ZM162.153 226.526C162.153 226.526 162.151 226.526 162.148 226.526H141.022V194.433H162.148L162.153 226.526ZM221.913 120.714C224.774 120.714 227.102 123.041 227.102 125.902V131.09H216.724V125.902C216.725 123.041 219.052 120.714 221.913 120.714ZM233.929 157.42H210.387V138.084H233.929L233.933 157.419C233.933 157.419 233.932 157.42 233.929 157.42Z" fill="white"></path><path d="M151.585 224.596C153.516 224.596 155.082 223.03 155.082 221.099C155.082 219.168 153.516 217.602 151.585 217.602C149.654 217.602 148.089 219.168 148.089 221.099C148.089 223.03 149.654 224.596 151.585 224.596Z" fill="white"></path><path d="M151.585 162.534C153.516 162.534 155.082 160.968 155.082 159.037C155.082 157.106 153.516 155.541 151.585 155.541C149.654 155.541 148.089 157.106 148.089 159.037C148.089 160.968 149.654 162.534 151.585 162.534Z" fill="white"></path><path d="M173.931 127.327C175.862 127.327 177.428 125.762 177.428 123.83C177.428 121.899 175.862 120.334 173.931 120.334C172 120.334 170.434 121.899 170.434 123.83C170.434 125.762 172 127.327 173.931 127.327Z" fill="white"></path></g><defs><clipPath id="clip0_729_2307"><rect width="178.671" height="178.671" fill="white" transform="translate(62.2504 61.5845)"></rect></clipPath></defs></svg> 