<?xml version="1.0" encoding="UTF-8"?> <svg xmlns="http://www.w3.org/2000/svg" width="301" height="301" viewBox="0 0 301 301" fill="none"><circle cx="150.804" cy="150.92" r="150" fill="#33B44A"></circle><path d="M235.613 174.231L198.018 152.914V144.168H204.185C211.504 144.168 217.459 138.214 217.459 130.894V127.951C217.459 125.287 215.292 123.12 212.628 123.12H206.177C203.102 123.12 200.27 124.174 198.018 125.935C198.018 125.935 197.959 108.566 197.857 107.755H207.637C211.482 107.755 215.2 106.941 218.686 105.338C219.97 104.748 220.532 103.228 219.941 101.946C219.352 100.662 217.833 100.101 216.549 100.691C213.738 101.984 210.739 102.64 207.637 102.64H198.018V98.719C198.018 86.941 207.6 77.3588 219.378 77.3588H228.998V81.279C228.998 86.0984 227.426 90.6501 224.451 94.4431C223.58 95.5548 223.774 97.1623 224.886 98.0339C225.997 98.9052 227.605 98.7108 228.477 97.5995C232.164 92.897 234.112 87.2534 234.112 81.279V76.643C234.112 74.2178 232.139 72.2444 229.713 72.2444H219.378C205.334 72.2444 193.814 83.2374 192.959 97.0696C189.351 93.0621 184.128 90.5373 178.324 90.5373H170.149C167.921 90.5373 166.108 92.3497 166.108 94.5782V100.482C166.108 111.341 174.943 120.175 185.802 120.175H192.902V150.015L153.061 127.425V122.028H156.708C161.407 122.028 165.23 118.205 165.23 113.506V110.982C165.23 108.305 163.051 106.127 160.374 106.127H156.468C155.063 106.127 153.738 106.47 152.569 107.075C151.393 103.774 148.238 101.404 144.539 101.404H140.633C137.956 101.404 135.778 103.583 135.778 106.26V108.784C135.778 113.483 139.601 117.306 144.299 117.306H147.946V119.471V127.764L102.723 153.406V144.335V141.175H106.282C112.359 141.175 117.302 136.231 117.302 130.155V127.162C117.302 124.581 115.203 122.481 112.621 122.481H108.629C104.365 122.481 100.661 124.917 98.8292 128.47C96.2024 125.667 92.4715 123.91 88.3361 123.91H84.4644C81.8601 123.91 79.7414 126.029 79.7414 128.633V132.505C79.7414 140.439 86.1956 146.892 94.1284 146.892H97.6081V156.306L87.6371 161.959C86.4081 162.656 85.9771 164.217 86.6737 165.446C87.3704 166.674 88.9315 167.105 90.1602 166.409L97.6084 162.186V178.782C97.6084 180.195 98.7532 181.34 100.166 181.34C101.579 181.34 102.723 180.195 102.723 178.782V159.285L112.26 153.878L145.49 172.72L103.324 196.628L70.5346 177.537L79.8117 172.277C81.0407 171.58 81.4717 170.019 80.775 168.79C80.078 167.561 78.5169 167.13 77.2886 167.827L65.9938 174.231C64.8194 174.897 64.0845 176.149 64.077 177.5C64.0695 178.85 64.7897 180.11 65.9566 180.79L102.034 201.796C102.036 201.797 102.039 201.798 102.041 201.8L148.9 229.084C149.487 229.425 150.145 229.596 150.803 229.596C151.461 229.596 152.119 229.425 152.706 229.084L213.739 193.547C214.959 192.837 215.373 191.271 214.662 190.05C213.951 188.83 212.385 188.416 211.165 189.127L198.156 196.701L155.86 172.719L189.219 153.805L192.903 155.893V175.203C192.903 176.615 194.047 177.76 195.46 177.76C196.873 177.76 198.018 176.615 198.018 175.203V158.794L231.072 177.536L221.396 183.171C220.175 183.881 219.762 185.447 220.472 186.668C220.948 187.484 221.804 187.939 222.685 187.939C223.121 187.939 223.564 187.827 223.969 187.591L235.65 180.79C236.817 180.11 237.537 178.85 237.53 177.5C237.522 176.149 236.788 174.897 235.613 174.231V174.231ZM206.177 128.235H212.344V130.894C212.344 135.393 208.684 139.053 204.185 139.053H198.018V136.395C198.018 131.896 201.678 128.235 206.177 128.235ZM185.803 115.059C177.764 115.059 171.224 108.519 171.224 100.481V95.652H178.324C186.362 95.652 192.903 102.192 192.903 110.231V115.059H185.803ZM102.723 133.502C102.723 130.245 105.373 127.596 108.629 127.596H112.188V130.154C112.188 133.41 109.538 136.059 106.282 136.059H102.723V133.502ZM94.1288 141.777C89.0161 141.777 84.8568 137.617 84.8568 132.505V129.025H88.3365C93.4492 129.025 97.6084 133.184 97.6084 138.297V141.777H94.1288ZM156.469 111.241H160.116V113.506C160.116 115.384 158.588 116.913 156.709 116.913H153.062V114.647C153.062 112.769 154.591 111.241 156.469 111.241V111.241ZM140.894 108.783V106.518H144.54C146.418 106.518 147.947 108.047 147.947 109.925V112.19H144.3C142.422 112.19 140.894 110.662 140.894 108.783V108.783ZM193.04 199.681L150.804 224.273L108.44 199.607L150.675 175.66L193.04 199.681ZM150.675 169.779L117.445 150.938L147.947 133.643V150.938C147.947 152.351 149.092 153.495 150.505 153.495C151.918 153.495 153.062 152.351 153.062 150.938V133.304L184.034 150.865L150.675 169.779Z" fill="white"></path><path d="M144.3 205.533H147.947V211.373C147.947 212.786 149.092 213.93 150.504 213.93C151.917 213.93 153.062 212.786 153.062 211.373V205.533H156.301C160.729 205.533 164.331 201.931 164.331 197.503V195.244C164.331 192.908 162.43 191.007 160.094 191.007H155.977C154.131 191.007 152.429 191.635 151.071 192.687C149.507 190.821 147.16 189.631 144.54 189.631H140.634C137.956 189.631 135.778 191.81 135.778 194.487V197.011C135.778 201.71 139.601 205.533 144.3 205.533V205.533ZM155.977 196.123H159.216V197.503C159.216 199.111 157.908 200.419 156.301 200.419H153.062V199.038C153.062 197.43 154.37 196.123 155.977 196.123ZM140.894 194.746H144.54C146.418 194.746 147.947 196.274 147.947 198.153V200.418H144.3C142.422 200.418 140.894 198.89 140.894 197.012V194.746Z" fill="white"></path></svg> 