<?xml version="1.0" encoding="UTF-8"?> <svg xmlns="http://www.w3.org/2000/svg" width="301" height="301" viewBox="0 0 301 301" fill="none"><circle cx="150.5" cy="150.58" r="150" fill="#33B44A"></circle><path d="M233.703 183.022H225.414V100.128C225.414 97.0801 222.935 94.6016 219.888 94.6016H87.2563C84.2086 94.6016 81.73 97.0801 81.73 100.128V183.022H73.4406C71.9126 183.022 70.6774 184.26 70.6774 185.786C70.6774 199.496 81.8323 210.654 95.5458 210.654H211.598C225.312 210.654 236.466 199.496 236.466 185.786C236.466 184.26 235.231 183.022 233.703 183.022ZM87.2563 100.128H219.888V183.022H214.361V108.417C214.361 106.892 213.126 105.654 211.598 105.654H114.888V111.18H208.835V183.022H98.3089V111.18H109.362V105.654H95.5458C94.0178 105.654 92.7826 106.892 92.7826 108.417V183.022H87.2563V100.128ZM211.598 205.128H95.5458C85.8167 205.128 77.7456 197.91 76.3999 188.549H230.741C229.398 197.91 221.327 205.128 211.598 205.128Z" fill="white"></path><path d="M112.125 194.075H195.019V199.601H112.125V194.075Z" fill="white"></path><path d="M103.835 149.865C103.835 155.96 108.792 160.917 114.888 160.917C118.939 160.917 122.448 158.704 124.371 155.449L142.547 160.644C142.544 160.735 142.519 160.823 142.519 160.917C142.519 167.013 147.476 171.97 153.572 171.97C159.667 171.97 164.625 167.013 164.625 160.917C164.625 159.019 164.1 157.259 163.254 155.698L186.315 134.286C188.034 135.388 190.065 136.049 192.256 136.049C198.352 136.049 203.309 131.092 203.309 124.996C203.309 118.901 198.352 113.944 192.256 113.944C186.161 113.944 181.203 118.901 181.203 124.996C181.203 126.894 181.728 128.655 182.574 130.216L159.513 151.627C157.794 150.525 155.763 149.865 153.572 149.865C149.521 149.865 146.012 152.078 144.086 155.336L125.913 150.141C125.916 150.047 125.94 149.959 125.94 149.865C125.94 143.769 120.983 138.812 114.888 138.812C108.792 138.812 103.835 143.769 103.835 149.865V149.865ZM192.256 119.47C195.304 119.47 197.782 121.948 197.782 124.996C197.782 128.044 195.304 130.523 192.256 130.523C189.208 130.523 186.73 128.044 186.73 124.996C186.73 121.948 189.208 119.47 192.256 119.47ZM153.572 155.391C156.62 155.391 159.098 157.869 159.098 160.917C159.098 163.965 156.62 166.443 153.572 166.443C150.524 166.443 148.046 163.965 148.046 160.917C148.046 157.869 150.524 155.391 153.572 155.391ZM114.888 144.338C117.936 144.338 120.414 146.817 120.414 149.865C120.414 152.912 117.936 155.391 114.888 155.391C111.84 155.391 109.362 152.912 109.362 149.865C109.362 146.817 111.84 144.338 114.888 144.338Z" fill="white"></path></svg> 