<?xml version="1.0" encoding="UTF-8"?> <svg xmlns="http://www.w3.org/2000/svg" width="301" height="301" viewBox="0 0 301 301" fill="none"><path d="M151.685 219.097C149.815 219.097 148.298 220.614 148.298 222.485C148.298 224.356 149.815 225.872 151.685 225.872C153.556 225.872 155.073 224.356 155.073 222.485C155.073 220.614 153.556 219.097 151.685 219.097Z" fill="white"></path><circle cx="150.804" cy="150.58" r="150" fill="#33B44A"></circle><path d="M193.894 172.726H208.828C224.65 172.726 237.522 159.854 237.522 144.032C237.522 136.871 234.869 130.013 230.052 124.722C226.002 120.273 220.711 117.239 214.909 115.986C214.91 115.859 214.911 115.732 214.911 115.607C214.911 93.375 196.824 75.2881 174.593 75.2881C161.669 75.2881 149.722 81.3726 142.127 91.6932C138.301 90.536 134.328 89.951 130.283 89.951C129.084 89.951 127.872 90.0049 126.683 90.1099C112.046 91.3846 99.1586 100.502 93.051 113.903C92.8359 114.375 92.6286 114.855 92.4301 115.34C76.7689 115.528 64.085 128.327 64.085 144.032C64.085 159.854 76.9573 172.726 92.779 172.726H109.476V191.651H100.348C98.9371 187.579 95.0655 184.645 90.5196 184.645C84.785 184.645 80.1194 189.31 80.1194 195.045C80.1194 200.78 84.785 205.445 90.5196 205.445C95.0659 205.445 98.9371 202.512 100.348 198.439H112.871C114.745 198.439 116.265 196.92 116.265 195.045V172.726H148.292V206.721C148.292 208.596 149.811 210.115 151.686 210.115C153.561 210.115 155.08 208.596 155.08 206.721V172.726H187.107V202.635C187.107 204.509 188.627 206.029 190.501 206.029H202.143C203.553 210.101 207.425 213.035 211.971 213.035C217.705 213.035 222.371 208.369 222.371 202.635C222.371 196.901 217.705 192.235 211.971 192.235C207.425 192.235 203.553 195.169 202.143 199.241H193.895V172.726H193.894ZM90.5193 198.657C88.5278 198.657 86.9076 197.037 86.9076 195.045C86.9076 193.054 88.5278 191.434 90.5193 191.434C92.5107 191.434 94.131 193.054 94.131 195.045C94.131 197.037 92.5107 198.657 90.5193 198.657ZM155.08 165.938V151.778C159.152 150.368 162.085 146.496 162.085 141.95C162.085 136.215 157.42 131.55 151.685 131.55C145.951 131.55 141.285 136.216 141.285 141.95C141.285 146.496 144.219 150.368 148.291 151.778V165.938H116.264V149.037L129.391 140.696C130.371 140.073 130.965 138.992 130.965 137.831V126.829C135.037 125.419 137.971 121.547 137.971 117.001C137.971 111.267 133.305 106.601 127.571 106.601C121.837 106.601 117.171 111.267 117.171 117.001C117.171 121.547 120.104 125.419 124.177 126.829V135.966L111.05 144.308C110.07 144.931 109.476 146.011 109.476 147.172V165.938H92.779C80.7001 165.938 70.8731 156.111 70.8731 144.032C70.8731 131.953 80.7001 122.126 92.779 122.126C93.2875 122.126 93.8478 122.15 94.4921 122.2C96.0408 122.319 97.4706 121.374 97.9683 119.904C98.3365 118.816 98.7602 117.744 99.2284 116.717C104.323 105.539 115.068 97.9349 127.278 96.8716C128.273 96.7835 129.284 96.7388 130.283 96.7388C134.413 96.7388 138.448 97.4681 142.277 98.9067C143.776 99.469 145.465 98.9081 146.329 97.5592C152.534 87.8643 163.1 82.0765 174.593 82.0765C193.082 82.0765 208.123 97.1182 208.123 115.607C208.123 116.571 208.079 117.566 207.992 118.564C207.83 120.415 209.187 122.052 211.036 122.237C222.266 123.358 230.735 132.728 230.735 144.032C230.735 156.111 220.908 165.938 208.829 165.938H193.895V155.055C193.895 153.797 193.199 152.642 192.086 152.054L179.194 145.243V136.45C183.267 135.039 186.2 131.168 186.2 126.622C186.2 120.887 181.535 116.222 175.8 116.222C170.065 116.222 165.4 120.888 165.4 126.622C165.4 131.168 168.333 135.039 172.406 136.45V147.289C172.406 148.547 173.102 149.702 174.214 150.29L187.106 157.101V165.938H155.08ZM151.685 145.562C149.694 145.562 148.074 143.942 148.074 141.95C148.074 139.959 149.694 138.339 151.685 138.339C153.677 138.339 155.297 139.959 155.297 141.95C155.297 143.942 153.677 145.562 151.685 145.562ZM127.571 120.613C125.579 120.613 123.959 118.993 123.959 117.001C123.959 115.01 125.579 113.39 127.571 113.39C129.562 113.39 131.183 115.01 131.183 117.001C131.183 118.993 129.562 120.613 127.571 120.613ZM175.8 130.234C173.808 130.234 172.188 128.613 172.188 126.622C172.188 124.63 173.808 123.01 175.8 123.01C177.791 123.01 179.412 124.63 179.412 126.622C179.412 128.613 177.791 130.234 175.8 130.234ZM211.97 199.023C213.962 199.023 215.582 200.643 215.582 202.635C215.582 204.626 213.962 206.247 211.97 206.247C209.979 206.247 208.358 204.626 208.358 202.635C208.358 200.643 209.978 199.023 211.97 199.023Z" fill="white"></path></svg> 